<svg width="18" height="15" viewBox="0 0 18 15" fill="none" xmlns="http://www.w3.org/2000/svg">
<path d="M6.43335 1.76667C6.76487 1.76667 7.08282 1.89836 7.31724 2.13278C7.55166 2.3672 7.68335 2.68515 7.68335 3.01667V3.25C7.68335 3.58152 7.81505 3.89946 8.04947 4.13388C8.28389 4.3683 8.60183 4.5 8.93335 4.5H14.8334C15.1649 4.5 15.4828 4.6317 15.7172 4.86612C15.9517 5.10054 16.0834 5.41848 16.0834 5.75V12.2167C16.0747 12.5424 15.9391 12.8518 15.7057 13.0791C15.4722 13.3063 15.1592 13.4334 14.8334 13.4333H3.16669C2.83517 13.4333 2.51722 13.3016 2.2828 13.0672C2.04838 12.8328 1.91669 12.5149 1.91669 12.1833V3.01667C1.91669 2.68515 2.04838 2.3672 2.2828 2.13278C2.51722 1.89836 2.83517 1.76667 3.16669 1.76667H6.43335ZM6.43335 0.516667H3.16669C2.50365 0.516667 1.86776 0.780059 1.39892 1.2489C0.930079 1.71774 0.666687 2.35363 0.666687 3.01667V12.1833C0.666687 12.8464 0.930079 13.4823 1.39892 13.9511C1.86776 14.4199 2.50365 14.6833 3.16669 14.6833H14.8334C15.4964 14.6833 16.1323 14.4199 16.6011 13.9511C17.07 13.4823 17.3334 12.8464 17.3334 12.1833V5.73333C17.3334 5.07029 17.07 4.43441 16.6011 3.96557C16.1323 3.49673 15.4964 3.23333 14.8334 3.23333H8.93335V3C8.93335 2.33696 8.66996 1.70107 8.20112 1.23223C7.73228 0.763392 7.0964 0.5 6.43335 0.5V0.516667Z" fill="#505F79"/>
</svg>
