<svg width="177" height="36" viewBox="0 0 177 36" fill="none" xmlns="http://www.w3.org/2000/svg">
<path d="M15.7221 0.00457764C11.9685 0.00457764 8.06169 0.600385 5.43162 2.24311C1.1333 4.91573 -0.126403 10.0992 0.0097818 14.8742C0.145966 19.0023 1.25246 23.4368 4.18043 26.4839C6.98072 29.3949 12.692 30.7397 16.6583 30.7397C16.7063 30.7373 16.7542 30.7449 16.7991 30.7619C16.844 30.7789 16.885 30.805 16.9193 30.8386C16.9537 30.8722 16.9807 30.9124 16.9988 30.9569C17.0169 31.0014 17.0256 31.0492 17.0243 31.0972V35.2678C17.0232 35.3643 17.0413 35.46 17.0777 35.5493C17.1141 35.6386 17.168 35.7198 17.2362 35.788C17.3044 35.8562 17.3855 35.91 17.4748 35.9464C17.5642 35.9828 17.6599 36.001 17.7563 35.9998H17.8244C17.971 35.9873 18.1104 35.931 18.2244 35.8381C20.1991 34.1358 22.1823 32.4335 24.0889 30.6461C26.0484 29.0035 27.8338 27.1638 29.4171 25.1561C32.4387 20.8578 32.8813 14.7891 31.8855 9.75027C30.9151 4.86466 27.485 1.70688 22.676 0.702523C20.3867 0.240957 18.0574 0.00716808 15.7221 0.00457764V0.00457764Z" fill="#00C6D7"/>
<g style="mix-blend-mode:multiply">
<path fill-rule="evenodd" clip-rule="evenodd" d="M59.1648 0.0038671H65.1229C65.2425 0.0146893 65.3534 0.0710873 65.4326 0.161392C65.5118 0.251697 65.5533 0.368998 65.5484 0.489024V27.7259C65.5462 27.8508 65.495 27.9699 65.4059 28.0575C65.3167 28.145 65.1968 28.1941 65.0718 28.194H59.1137C58.9888 28.1941 58.8688 28.145 58.7797 28.0575C58.6905 27.9699 58.6393 27.8508 58.6371 27.7259V0.489024C58.634 0.420784 58.646 0.352703 58.672 0.289559C58.6981 0.226416 58.7376 0.16974 58.7879 0.123509C58.8382 0.0772778 58.898 0.0426116 58.9631 0.0219433C59.0282 0.00127497 59.0971 -0.00489476 59.1648 0.0038671ZM41.9715 0.00453183H36.0135C35.9498 0.00333187 35.8866 0.0151259 35.8276 0.0391928C35.7687 0.0632597 35.7153 0.0990937 35.6707 0.144504C35.6261 0.189915 35.5912 0.243947 35.5682 0.303298C35.5452 0.362649 35.5345 0.426072 35.5368 0.489689V27.7095C35.539 27.8345 35.5902 27.9535 35.6794 28.0411C35.7685 28.1287 35.8885 28.1777 36.0135 28.1777H41.563C41.6695 28.1768 41.7726 28.1403 41.8559 28.0739C41.9392 28.0076 41.9979 27.9153 42.0226 27.8117L42.3971 26.1094C43.1711 26.9512 44.1222 27.6109 45.182 28.0406C46.2417 28.4704 47.3837 28.6597 48.5254 28.5947C53.6749 28.5947 57.5646 25.2838 57.5646 17.9979C57.5646 10.712 53.7515 7.35849 48.5765 7.35849C47.4289 7.29715 46.2822 7.49481 45.2213 7.93683C44.1605 8.37885 43.2127 9.05389 42.4482 9.91195V0.472666C42.4482 0.410467 42.4358 0.348889 42.4117 0.291531C42.3877 0.234172 42.3524 0.182182 42.3081 0.138599C42.2637 0.0950157 42.2111 0.0607125 42.1533 0.0376934C42.0955 0.0146743 42.0337 0.00340093 41.9715 0.00453183ZM42.4737 20.2449C42.4325 20.0982 42.4124 19.9463 42.4141 19.7938V16.3296C42.4153 16.1572 42.4381 15.9856 42.4822 15.8189C42.6642 14.9372 43.1517 14.1481 43.8586 13.5906C44.5656 13.0332 45.4466 12.7432 46.3464 12.7718C48.7467 12.7718 50.449 14.2869 50.449 18.0149C50.449 21.743 48.7467 23.3176 46.3464 23.3176C45.4349 23.3764 44.534 23.0946 43.8185 22.5269C43.1029 21.9592 42.6237 21.146 42.4737 20.2449ZM76.2474 8.25156V35.4884C76.2471 35.6092 76.2926 35.7255 76.3748 35.814C76.4569 35.9025 76.5696 35.9565 76.69 35.9651H82.6481C82.7745 35.9651 82.8957 35.9149 82.9851 35.8255C83.0745 35.7361 83.1247 35.6149 83.1247 35.4884V26.0151C83.8893 26.8732 84.8371 27.5482 85.8979 27.9902C86.9587 28.4322 88.1054 28.6299 89.253 28.5686C94.428 28.5686 98.2327 25.2065 98.2327 17.9207C98.2327 10.6348 94.36 7.36636 89.253 7.36636C88.1113 7.30142 86.9694 7.49067 85.9096 7.92046C84.8499 8.35024 83.8987 9.00986 83.1247 9.85172L82.7502 8.14942C82.7254 8.04357 82.6658 7.94912 82.5809 7.88121C82.496 7.8133 82.3908 7.77586 82.2821 7.77491H76.7156C76.5906 7.77714 76.4716 7.82834 76.384 7.91749C76.2965 8.00664 76.2474 8.1266 76.2474 8.25156ZM83.1928 20.2103C83.1451 20.0443 83.1222 19.8722 83.1247 19.6996V16.1673C83.1249 16.0155 83.142 15.8642 83.1758 15.7162C83.3296 14.816 83.8113 14.0047 84.5281 13.4389C85.2448 12.873 86.1458 12.5927 87.0571 12.652C89.4488 12.652 91.1511 14.1756 91.1511 17.9462C91.1511 21.7168 89.4573 23.2489 87.0571 23.2489C86.1576 23.2813 85.2758 22.9938 84.5683 22.4374C83.8608 21.8811 83.3735 21.092 83.1928 20.2103ZM67.4635 0.506044V4.76181C67.4721 4.88223 67.5261 4.99489 67.6146 5.07705C67.7031 5.1592 67.8194 5.20471 67.9402 5.20441H73.8982C74.0247 5.20441 74.1459 5.15419 74.2353 5.0648C74.3247 4.97541 74.3749 4.85418 74.3749 4.72776V0.471998C74.3749 0.409799 74.3625 0.348221 74.3385 0.290863C74.3144 0.233504 74.2792 0.181515 74.2348 0.137931C74.1904 0.0943478 74.1378 0.0600446 74.08 0.0370255C74.0222 0.0140064 73.9604 0.00273303 73.8982 0.00386392H67.9402C67.875 0.00250529 67.8103 0.014768 67.7501 0.0398671C67.69 0.0649661 67.6357 0.102348 67.5909 0.14962C67.546 0.196893 67.5115 0.253013 67.4896 0.314388C67.4676 0.375764 67.4588 0.441042 67.4635 0.506044ZM73.8982 7.80042H67.9402C67.8138 7.80042 67.6925 7.85064 67.6031 7.94003C67.5137 8.02942 67.4635 8.15065 67.4635 8.27707V27.7089C67.4658 27.8338 67.517 27.9529 67.6061 28.0404C67.6952 28.128 67.8152 28.177 67.9402 28.177H73.8982C74.0232 28.177 74.1432 28.128 74.2323 28.0404C74.3214 27.9529 74.3727 27.8338 74.3749 27.7089V8.27707C74.3749 8.15065 74.3247 8.02942 74.2353 7.94003C74.1459 7.85064 74.0247 7.80042 73.8982 7.80042ZM100.173 18.2186C100.173 11.0604 103.986 8.00472 109.281 8.00472C112.558 8.00472 115.077 9.16229 116.532 11.8094V0.00388718H119.018V28.16H116.822L116.618 24.5937C115.162 27.2493 112.643 28.4494 109.323 28.4494C103.986 28.4494 100.173 25.3853 100.173 18.2186ZM109.808 26.2534C113.213 26.2534 115.809 24.6362 116.558 20.6188V15.8183C115.766 11.8009 113.213 10.2177 109.808 10.2177C105.791 10.2177 102.854 12.4903 102.854 18.2441C102.854 23.9979 105.765 26.2534 109.808 26.2534ZM130.815 8.00466C125.223 8.00466 121.205 11.0603 121.205 18.2185C121.205 25.3852 125.257 28.4323 130.849 28.4323C136.441 28.4323 140.45 25.3682 140.45 18.2185C140.45 11.0688 136.407 8.00466 130.815 8.00466ZM137.769 18.2185C137.769 24.0148 134.79 26.2534 130.815 26.2534C126.831 26.2534 123.861 23.9978 123.861 18.244C123.861 12.4902 126.797 10.2177 130.815 10.2177C134.832 10.2177 137.769 12.4221 137.769 18.2185ZM141.08 18.2185C141.08 11.0603 145.182 8.00466 150.689 8.00466C155.2 8.00466 158.469 9.98785 159.626 14.5841H156.979C155.983 11.4348 153.668 10.2177 150.664 10.2177C146.689 10.2177 143.71 12.4902 143.71 18.244C143.71 23.9978 146.731 26.2789 150.664 26.2789C153.685 26.2789 156 24.9937 156.996 21.8104H159.601C158.486 26.4066 155.175 28.4749 150.664 28.4749C145.182 28.4493 141.08 25.3852 141.08 18.2185ZM163.108 22.5254H160.503C160.707 26.2534 163.022 28.4494 168.717 28.4834C173.807 28.4834 176.7 26.9514 176.7 22.7722C176.7 18.7853 173.012 18.1008 169.539 17.4563C166.451 16.8832 163.533 16.3418 163.533 13.5372C163.533 11.2561 165.448 10.2262 168.64 10.2262C172.045 10.2262 173.458 11.3838 173.747 13.7415H176.232C175.943 10.1411 173.585 8.03024 168.657 8.03024C164.223 8.03024 160.997 9.64743 160.997 13.6564C160.997 18.2781 165.14 19.019 168.778 19.6697C171.626 20.1789 174.164 20.6328 174.164 22.8488C174.164 25.0959 172.675 26.2534 168.7 26.2534C164.725 26.2534 163.312 24.9682 163.108 22.5254Z" fill="#221F1F"/>
</g>
</svg>
