<svg width="185" height="49" viewBox="0 0 185 49" fill="none" xmlns="http://www.w3.org/2000/svg">
<path d="M10.3765 0.00175541C7.89912 0.00175541 5.32066 0.400602 3.58484 1.47917C0.747973 3.23185 -0.083425 6.65294 0.00645593 9.80439C0.0963368 12.5289 0.826619 15.4557 2.75906 17.4667C4.60723 19.3879 8.37661 20.2755 10.9944 20.2755C11.0263 20.2747 11.0581 20.2805 11.0877 20.2923C11.1174 20.3042 11.1443 20.322 11.1669 20.3445C11.1895 20.3671 11.2073 20.3941 11.2191 20.4237C11.231 20.4534 11.2367 20.4851 11.2359 20.5171V23.2641C11.2352 23.3277 11.2472 23.3909 11.2712 23.4498C11.2952 23.5088 11.3308 23.5623 11.3758 23.6073C11.4208 23.6524 11.4743 23.6879 11.5333 23.7119C11.5922 23.7359 11.6554 23.7479 11.7191 23.7472H11.764C11.8613 23.737 11.9532 23.6978 12.028 23.6348C13.3313 22.5113 14.6402 21.3878 15.8985 20.2081C17.1903 19.1245 18.3686 17.9124 19.4151 16.5904C21.4093 13.7816 21.7015 9.7426 21.0442 6.417C20.4038 3.19814 18.1399 1.12527 14.966 0.456777C13.4554 0.151099 11.9177 -0.00134757 10.3765 0.00175541Z" fill="#00C6D7"/>
<path d="M50.3229 23.4158V5.45085C50.3229 5.36891 50.3555 5.29032 50.4134 5.23238C50.4714 5.17444 50.55 5.14189 50.6319 5.14189H54.3058C54.3775 5.14251 54.447 5.16722 54.503 5.21204C54.559 5.25686 54.5984 5.3192 54.6147 5.38906L54.8619 6.51257C55.3727 5.95694 56.0005 5.5216 56.6999 5.23795C57.3994 4.95429 58.153 4.82939 58.9066 4.87224C62.2771 4.87224 64.8331 7.02939 64.8331 11.8436C64.8331 16.6579 62.322 18.8656 58.9066 18.8656C58.1491 18.9061 57.3923 18.7756 56.6922 18.4839C55.992 18.1921 55.3665 17.7466 54.8619 17.1803V23.4158C54.8605 23.4982 54.8267 23.5768 54.7678 23.6346C54.709 23.6924 54.6298 23.7248 54.5473 23.7248H50.615C50.5361 23.7204 50.4617 23.686 50.4074 23.6285C50.353 23.571 50.3228 23.4949 50.3229 23.4158ZM54.8619 13.1469C55.2439 14.6805 56.227 15.3377 57.4572 15.3377C59.0414 15.3377 60.1593 14.3266 60.1593 11.838C60.1593 9.34944 59.0358 8.33828 57.4572 8.33828C56.1427 8.33828 55.2102 8.99553 54.8619 10.5235V13.1469Z" fill="black"/>
<path d="M23.7687 0.00183105H27.701C27.7844 0.00183105 27.8644 0.0349745 27.9234 0.0939703C27.9824 0.152966 28.0156 0.232982 28.0156 0.316414V6.53505C28.5201 5.96874 29.1457 5.52321 29.8458 5.23148C30.546 4.93975 31.3028 4.8093 32.0602 4.84978C35.4757 4.84978 37.9923 7.0631 37.9923 11.8773C37.9923 16.6916 35.4251 18.86 32.0265 18.86C31.2729 18.9028 30.5193 18.7779 29.8199 18.4943C29.1204 18.2106 28.4927 17.7753 27.9818 17.2196L27.7347 18.3432C27.7186 18.4121 27.68 18.4737 27.6252 18.5185C27.5703 18.5632 27.5021 18.5885 27.4313 18.5903H23.7687C23.6853 18.5903 23.6052 18.5572 23.5462 18.4982C23.4872 18.4392 23.4541 18.3592 23.4541 18.2757V0.316414C23.4541 0.232982 23.4872 0.152966 23.5462 0.0939703C23.6052 0.0349745 23.6853 0.00183105 23.7687 0.00183105V0.00183105ZM27.9931 13.2031C28.3189 14.7367 29.2795 15.3883 30.5884 15.3883C32.1725 15.3883 33.2961 14.3491 33.2961 11.8942C33.2961 9.43932 32.1725 8.39446 30.5884 8.39446C29.3582 8.39446 28.3751 9.04609 27.9931 10.5797V13.2031Z" fill="black"/>
<path d="M39.0484 0.00181145H42.9807C43.0581 0.0101576 43.1297 0.0469511 43.1816 0.105067C43.2335 0.163183 43.262 0.238486 43.2615 0.316395V18.2926C43.2615 18.376 43.2284 18.456 43.1694 18.515C43.1104 18.574 43.0304 18.6072 42.947 18.6072H39.0147C38.9312 18.6072 38.8512 18.574 38.7922 18.515C38.7332 18.456 38.7001 18.376 38.7001 18.2926V0.316395C38.6998 0.272087 38.7089 0.228226 38.7268 0.187683C38.7447 0.147139 38.7709 0.110829 38.8038 0.0811302C38.8367 0.0514311 38.8755 0.0290129 38.9176 0.0153439C38.9598 0.0016749 39.0043 -0.00293659 39.0484 0.00181145Z" fill="black"/>
<path d="M44.5256 3.13081V0.322032C44.5249 0.28025 44.5325 0.238738 44.5479 0.19992C44.5634 0.161102 44.5865 0.125757 44.6158 0.0959475C44.645 0.0661381 44.68 0.0424625 44.7185 0.0263031C44.757 0.0101437 44.7984 0.0018244 44.8402 0.00183106H48.7725C48.8559 0.00183106 48.9359 0.0349745 48.9949 0.0939703C49.0539 0.152966 49.0871 0.232982 49.0871 0.316414V3.12519C49.0871 3.20862 49.0539 3.28864 48.9949 3.34764C48.9359 3.40663 48.8559 3.43977 48.7725 3.43977H44.8402C44.7577 3.43979 44.6786 3.40742 44.6197 3.34963C44.5609 3.29184 44.5271 3.21326 44.5256 3.13081ZM44.8402 5.14189H48.7725C48.855 5.14188 48.9341 5.17425 48.993 5.23204C49.0518 5.28982 49.0856 5.3684 49.0871 5.45086V18.2757C49.0871 18.3592 49.0539 18.4392 48.9949 18.4982C48.9359 18.5572 48.8559 18.5903 48.7725 18.5903H44.8402C44.7568 18.5903 44.6768 18.5572 44.6178 18.4982C44.5588 18.4392 44.5256 18.3592 44.5256 18.2757V5.45086C44.5271 5.3684 44.5609 5.28982 44.6197 5.23204C44.6786 5.17425 44.7577 5.14188 44.8402 5.14189Z" fill="black"/>
<path d="M68.7934 0.00183105V8.14729C69.6135 6.37214 71.1415 5.28233 73.7649 5.28233C76.9107 5.28233 78.6297 6.8384 78.6297 10.5797V18.5903H76.9444V10.5797C76.9444 7.63047 75.3884 6.72604 73.2312 6.72604C70.0349 6.72604 68.8327 9.37753 68.7765 12.7144V18.5903H67.0912V0.00183105H68.7934Z" fill="black"/>
<path d="M86.4438 5.28223C89.8143 5.28223 92.4602 7.10793 92.6231 10.9616V12.4109H81.8262C81.9666 15.5006 83.5114 17.3319 86.4438 17.3319C88.3313 17.3319 89.8649 16.5904 90.5727 14.7366H92.3478C91.5277 17.5454 89.3425 18.7812 86.4438 18.7812C82.7587 18.7812 80.0791 16.7589 80.0791 12.0401C80.0791 7.3214 82.7587 5.28223 86.4438 5.28223ZM90.848 10.9616C90.7918 8.06853 88.9043 6.72594 86.4438 6.72594C83.7417 6.72594 82.2082 8.25953 81.9104 10.9616H90.848Z" fill="black"/>
<path d="M94.0443 0.00183105H95.7295V18.5903H94.0443V0.00183105Z" fill="black"/>
<path d="M98.1676 5.47323H99.6169L99.8079 7.79329C100.763 6.04623 102.431 5.25415 104.617 5.25415C108.116 5.25415 110.627 7.30456 110.627 12.0289C110.627 16.7533 108.116 18.8037 104.617 18.8037C102.459 18.8037 100.791 18.0116 99.836 16.2926V23.9999H98.1508L98.1676 5.47323ZM99.8529 13.6131C100.319 16.2646 102.038 17.3319 104.308 17.3319C106.959 17.3319 108.897 15.8264 108.897 12.0289C108.897 8.23145 106.914 6.7428 104.291 6.7428C102.044 6.7428 100.302 7.81014 99.836 10.4335L99.8529 13.6131Z" fill="black"/>
<path d="M116.503 12.0289C116.503 7.30454 119.211 5.28784 122.846 5.28784C125.823 5.28784 127.98 6.59673 128.744 9.63021H126.997C126.34 7.55172 124.812 6.73155 122.846 6.73155C120.222 6.73155 118.25 8.23706 118.25 12.0345C118.25 15.832 120.245 17.3375 122.846 17.3375C124.84 17.3375 126.368 16.4892 127.025 14.3827H128.744C128.008 17.4161 125.823 18.7868 122.846 18.7868C119.211 18.7812 116.503 16.7589 116.503 12.0289Z" fill="black"/>
<path d="M135.552 5.28223C138.923 5.28223 141.563 7.10793 141.732 10.9616V12.4109H130.929C131.07 15.5006 132.614 17.3319 135.552 17.3319C137.434 17.3319 138.968 16.5904 139.676 14.7366H141.451C140.631 17.5454 138.445 18.7812 135.552 18.7812C131.862 18.7812 129.182 16.7589 129.182 12.0401C129.182 7.3214 131.862 5.28223 135.552 5.28223ZM139.951 10.9616C139.895 8.06853 138.007 6.72594 135.552 6.72594C132.845 6.72594 131.317 8.25953 131.013 10.9616H139.951Z" fill="black"/>
<path d="M143.147 5.47321H144.597L144.76 8.28199C145.552 6.42258 147.108 5.30469 149.787 5.30469C152.928 5.30469 154.68 6.86075 154.652 10.602V18.5902H152.967V10.5796C152.967 7.63036 151.411 6.72593 149.254 6.72593C146.052 6.72593 144.849 9.37741 144.799 12.7142V18.5902H143.114L143.147 5.47321Z" fill="black"/>
<path d="M155.826 6.81028V5.4733H158.174V1.54102H159.815V5.4733H163.562V6.81028H159.815V14.7367C159.815 16.7309 160.169 17.141 161.837 17.141H163.725V18.5903H161.427C159.214 18.5903 158.174 17.6297 158.174 14.8996V6.81028H155.826Z" fill="black"/>
<path d="M170.218 5.28223C173.589 5.28223 176.235 7.10793 176.398 10.9616V12.4109H165.606C165.747 15.5006 167.292 17.3319 170.224 17.3319C172.111 17.3319 173.645 16.5904 174.353 14.7366H176.128C175.308 17.5454 173.123 18.7812 170.224 18.7812C166.539 18.7812 163.859 16.7589 163.859 12.0401C163.859 7.3214 166.539 5.28223 170.218 5.28223ZM174.622 10.9616C174.566 8.06853 172.679 6.72594 170.218 6.72594C167.516 6.72594 165.983 8.25953 165.685 10.9616H174.622Z" fill="black"/>
<path d="M179.274 5.47318L179.437 8.50666C179.903 7.50075 180.659 6.65674 181.608 6.0824C182.556 5.50807 183.655 5.22947 184.762 5.28219V7.02925H184.464C183.814 7.01576 183.168 7.13247 182.564 7.37253C181.959 7.61258 181.409 7.97112 180.945 8.42705C180.481 8.88297 180.113 9.42707 179.863 10.0273C179.613 10.6275 179.485 11.2718 179.487 11.9221V18.5902H177.802V5.47318H179.274Z" fill="black"/>
<path d="M50.3229 23.4158V5.45085C50.3229 5.36891 50.3555 5.29032 50.4134 5.23238C50.4714 5.17444 50.55 5.14189 50.6319 5.14189H54.3058C54.3775 5.14251 54.447 5.16722 54.503 5.21204C54.559 5.25686 54.5984 5.3192 54.6147 5.38906L54.8619 6.51257C55.3727 5.95694 56.0005 5.5216 56.6999 5.23795C57.3994 4.95429 58.153 4.82939 58.9066 4.87224C62.2771 4.87224 64.8331 7.02939 64.8331 11.8436C64.8331 16.6579 62.322 18.8656 58.9066 18.8656C58.1491 18.9061 57.3923 18.7756 56.6922 18.4839C55.992 18.1921 55.3665 17.7466 54.8619 17.1803V23.4158C54.8605 23.4982 54.8267 23.5768 54.7678 23.6346C54.709 23.6924 54.6298 23.7248 54.5473 23.7248H50.615C50.5361 23.7204 50.4617 23.686 50.4074 23.6285C50.353 23.571 50.3228 23.4949 50.3229 23.4158ZM54.8619 12.9896C54.8602 13.1036 54.8754 13.2171 54.9069 13.3267C55.026 13.9091 55.3474 14.4306 55.8142 14.7987C56.281 15.1668 56.8631 15.3578 57.4572 15.3377C59.0414 15.3377 60.1593 14.3266 60.1593 11.838C60.1593 9.34944 59.0358 8.33828 57.4572 8.33828C56.8547 8.29802 56.2587 8.48333 55.7853 8.85815C55.3118 9.23298 54.9947 9.77052 54.8956 10.3662C54.873 10.4638 54.8617 10.5637 54.8619 10.6639V12.9896Z" fill="black"/>
<path d="M23.7687 0.00183105H27.701C27.7844 0.00183105 27.8644 0.0349745 27.9234 0.0939703C27.9824 0.152966 28.0156 0.232982 28.0156 0.316414V6.53505C28.5201 5.96874 29.1457 5.52321 29.8458 5.23148C30.546 4.93975 31.3028 4.8093 32.0602 4.84978C35.4757 4.84978 37.9923 7.0631 37.9923 11.8773C37.9923 16.6916 35.4251 18.86 32.0265 18.86C31.2729 18.9028 30.5193 18.7779 29.8199 18.4943C29.1204 18.2106 28.4927 17.7753 27.9818 17.2196L27.7347 18.3432C27.7186 18.4121 27.68 18.4737 27.6252 18.5185C27.5703 18.5632 27.5021 18.5885 27.4313 18.5903H23.7687C23.6853 18.5903 23.6052 18.5572 23.5462 18.4982C23.4872 18.4392 23.4541 18.3592 23.4541 18.2757V0.316414C23.4541 0.232982 23.4872 0.152966 23.5462 0.0939703C23.6052 0.0349745 23.6853 0.00183105 23.7687 0.00183105V0.00183105ZM27.9931 13.0683C27.9923 13.1689 28.0056 13.2691 28.0324 13.366C28.1326 13.9596 28.4495 14.495 28.9216 14.8686C29.3937 15.2421 29.9876 15.4273 30.5884 15.3883C32.1725 15.3883 33.2961 14.3491 33.2961 11.8942C33.2961 9.43932 32.1725 8.39446 30.5884 8.39446C29.995 8.3742 29.4136 8.56438 28.9469 8.93136C28.4802 9.29835 28.1583 9.81852 28.038 10.3999C28.0093 10.51 27.9942 10.6232 27.9931 10.737V13.0683Z" fill="black"/>
<path d="M39.0484 0.00181145H42.9807C43.0581 0.0101576 43.1297 0.0469511 43.1816 0.105067C43.2335 0.163183 43.262 0.238486 43.2615 0.316395V18.2926C43.2615 18.376 43.2284 18.456 43.1694 18.515C43.1104 18.574 43.0304 18.6072 42.947 18.6072H39.0147C38.9312 18.6072 38.8512 18.574 38.7922 18.515C38.7332 18.456 38.7001 18.376 38.7001 18.2926V0.316395C38.6998 0.272087 38.7089 0.228226 38.7268 0.187683C38.7447 0.147139 38.7709 0.110829 38.8038 0.0811302C38.8367 0.0514311 38.8755 0.0290129 38.9176 0.0153439C38.9598 0.0016749 39.0043 -0.00293659 39.0484 0.00181145Z" fill="black"/>
<path d="M44.5256 3.13081V0.322032C44.5249 0.28025 44.5325 0.238738 44.5479 0.19992C44.5634 0.161102 44.5865 0.125757 44.6158 0.0959475C44.645 0.0661381 44.68 0.0424625 44.7185 0.0263031C44.757 0.0101437 44.7984 0.0018244 44.8402 0.00183106H48.7725C48.8559 0.00183106 48.9359 0.0349745 48.9949 0.0939703C49.0539 0.152966 49.0871 0.232982 49.0871 0.316414V3.12519C49.0871 3.20862 49.0539 3.28864 48.9949 3.34764C48.9359 3.40663 48.8559 3.43977 48.7725 3.43977H44.8402C44.7577 3.43979 44.6786 3.40742 44.6197 3.34963C44.5609 3.29184 44.5271 3.21326 44.5256 3.13081ZM44.8402 5.14189H48.7725C48.855 5.14188 48.9341 5.17425 48.993 5.23204C49.0518 5.28982 49.0856 5.3684 49.0871 5.45086V18.2757C49.0871 18.3592 49.0539 18.4392 48.9949 18.4982C48.9359 18.5572 48.8559 18.5903 48.7725 18.5903H44.8402C44.7568 18.5903 44.6768 18.5572 44.6178 18.4982C44.5588 18.4392 44.5256 18.3592 44.5256 18.2757V5.45086C44.5271 5.3684 44.5609 5.28982 44.6197 5.23204C44.6786 5.17425 44.7577 5.14188 44.8402 5.14189Z" fill="black"/>
<path d="M7.452 43L6.552 40.912H2.268L1.368 43H0.12L3.888 34.54H4.92L8.688 43H7.452ZM2.688 39.928H6.132L4.416 35.92L2.688 39.928ZM9.7965 34.54H13.3005C14.1965 34.54 14.8925 34.76 15.3885 35.2C15.8845 35.64 16.1325 36.264 16.1325 37.072C16.1325 37.872 15.8845 38.496 15.3885 38.944C14.8925 39.392 14.1965 39.616 13.3005 39.616H11.0325V43H9.7965V34.54ZM13.1685 38.62C14.3525 38.62 14.9445 38.104 14.9445 37.072C14.9445 36.048 14.3525 35.536 13.1685 35.536H11.0325V38.62H13.1685ZM17.6246 43V34.54H18.8606V43H17.6246ZM30.8519 43H29.4839L28.0439 40.288C27.8839 40 27.6919 39.8 27.4679 39.688C27.2519 39.568 26.9639 39.508 26.6039 39.508H25.2119V43H23.9879V34.54H27.5879C28.5239 34.54 29.2359 34.748 29.7239 35.164C30.2199 35.58 30.4679 36.188 30.4679 36.988C30.4679 37.636 30.2839 38.168 29.9159 38.584C29.5559 39 29.0399 39.264 28.3679 39.376C28.7839 39.504 29.1279 39.816 29.3999 40.312L30.8519 43ZM27.4439 38.512C28.0679 38.512 28.5279 38.392 28.8239 38.152C29.1279 37.904 29.2799 37.524 29.2799 37.012C29.2799 36.5 29.1319 36.128 28.8359 35.896C28.5399 35.656 28.0759 35.536 27.4439 35.536H25.1999V38.512H27.4439ZM32.2731 43V34.54H37.7691V35.536H33.4851V38.2H37.5291V39.208H33.4851V42.004H37.7691V43H32.2731ZM39.2926 43V34.54H44.6686V35.548H40.5166V38.2H44.4286V39.208H40.5166V43H39.2926ZM46.0192 43V34.54H51.5152V35.536H47.2312V38.2H51.2752V39.208H47.2312V42.004H51.5152V43H46.0192ZM59.9027 43H58.5347L57.0947 40.288C56.9347 40 56.7427 39.8 56.5187 39.688C56.3027 39.568 56.0147 39.508 55.6547 39.508H54.2627V43H53.0387V34.54H56.6387C57.5747 34.54 58.2867 34.748 58.7747 35.164C59.2707 35.58 59.5187 36.188 59.5187 36.988C59.5187 37.636 59.3347 38.168 58.9667 38.584C58.6067 39 58.0907 39.264 57.4187 39.376C57.8347 39.504 58.1787 39.816 58.4507 40.312L59.9027 43ZM56.4947 38.512C57.1187 38.512 57.5787 38.392 57.8747 38.152C58.1787 37.904 58.3307 37.524 58.3307 37.012C58.3307 36.5 58.1827 36.128 57.8867 35.896C57.5907 35.656 57.1267 35.536 56.4947 35.536H54.2507V38.512H56.4947ZM61.3238 43V34.54H66.8198V35.536H62.5358V38.2H66.5798V39.208H62.5358V42.004H66.8198V43H61.3238ZM74.1274 34.54H75.2914V43H74.3434L69.5074 36.616V43H68.3434V34.54H69.2794L74.1274 40.936V34.54ZM80.9813 43.096C80.1653 43.096 79.4533 42.92 78.8453 42.568C78.2453 42.216 77.7813 41.716 77.4533 41.068C77.1333 40.412 76.9733 39.644 76.9733 38.764C76.9733 37.884 77.1333 37.12 77.4533 36.472C77.7813 35.816 78.2453 35.316 78.8453 34.972C79.4533 34.62 80.1653 34.444 80.9813 34.444C81.5573 34.444 82.0933 34.536 82.5893 34.72C83.0853 34.896 83.5053 35.152 83.8493 35.488L83.4173 36.4C83.0253 36.072 82.6333 35.836 82.2413 35.692C81.8573 35.548 81.4413 35.476 80.9933 35.476C80.1133 35.476 79.4333 35.76 78.9533 36.328C78.4813 36.896 78.2453 37.708 78.2453 38.764C78.2453 39.82 78.4813 40.636 78.9533 41.212C79.4333 41.78 80.1133 42.064 80.9933 42.064C81.4413 42.064 81.8573 41.992 82.2413 41.848C82.6333 41.704 83.0253 41.468 83.4173 41.14L83.8493 42.052C83.5053 42.388 83.0853 42.648 82.5893 42.832C82.0933 43.008 81.5573 43.096 80.9813 43.096ZM85.3824 43V34.54H90.8784V35.536H86.5944V38.2H90.6384V39.208H86.5944V42.004H90.8784V43H85.3824Z" fill="#8CA0B3"/>
</svg>
