<svg width="8" height="8" viewBox="0 0 8 8" fill="none" xmlns="http://www.w3.org/2000/svg">
<path d="M7.80533 4.55866C7.72349 4.53812 7.64165 4.55866 7.57005 4.61002C7.30407 4.83602 6.99718 5.02093 6.65959 5.1442C6.34247 5.26747 5.99466 5.32911 5.62639 5.32911C4.79777 5.32911 4.04077 4.99011 3.49859 4.44566C2.95641 3.90121 2.61883 3.14103 2.61883 2.30895C2.61883 1.95968 2.68021 1.62068 2.7825 1.3125C2.89503 0.983775 3.05871 0.685868 3.27353 0.429052C3.3656 0.316053 3.34514 0.15169 3.23261 0.0592363C3.16101 0.00787304 3.07917 -0.0126723 2.99733 0.00787303C2.1278 0.244144 1.37079 0.76805 0.828613 1.46659C0.306894 2.15486 0 3.00749 0 3.93203C0 5.05175 0.450111 6.06874 1.18666 6.80837C1.9232 7.548 2.92572 8 4.051 8C4.99214 8 5.86167 7.67128 6.5573 7.12682C7.26315 6.5721 7.77464 5.78111 7.98947 4.87711C8.03039 4.7333 7.94855 4.58948 7.80533 4.55866Z" fill="#3A4A65"/>
</svg>
