<svg width="18" height="18" viewBox="0 0 18 18" fill="none" xmlns="http://www.w3.org/2000/svg">
<path d="M17.2389 16.308L14.3139 13.383C15.6007 11.8557 16.2469 9.88983 16.117 7.89691C15.987 5.90399 15.0912 4.03861 13.6169 2.69133C12.1426 1.34406 10.2043 0.619377 8.20778 0.669018C6.21125 0.718658 4.31134 1.53877 2.90585 2.95765C1.50036 4.37652 0.698294 6.28412 0.66758 8.28103C0.636866 10.2779 1.37989 12.2093 2.74108 13.6707C4.10226 15.1322 5.97605 16.0103 7.97011 16.1213C9.96417 16.2324 11.9239 15.5676 13.4389 14.2663L16.3555 17.1913C16.4727 17.3084 16.6316 17.3741 16.7972 17.3741C16.9628 17.3741 17.1217 17.3084 17.2389 17.1913C17.3559 17.0741 17.4216 16.9153 17.4216 16.7497C17.4216 16.584 17.3559 16.4252 17.2389 16.308ZM2.00553 8.46633C2.00388 7.19523 2.3793 5.95221 3.08429 4.89452C3.78927 3.83684 4.79214 3.01204 5.96601 2.52447C7.13988 2.03689 8.43199 1.90847 9.67887 2.15544C10.9257 2.40241 12.0714 3.01367 12.9707 3.91189C13.8701 4.81011 14.4829 5.95492 14.7315 7.20147C14.98 8.44803 14.8533 9.74031 14.3673 10.9148C13.8812 12.0893 13.0577 13.0933 12.0009 13.7996C10.9442 14.506 9.70163 14.883 8.43053 14.883C6.72863 14.8808 5.09695 14.2043 3.89274 13.0017C2.68854 11.799 2.00994 10.1682 2.00553 8.46633Z" fill="#8CA0B3"/>
</svg>
