<svg width="8" height="8" viewBox="0 0 8 8" fill="none" xmlns="http://www.w3.org/2000/svg">
<path fill-rule="evenodd" clip-rule="evenodd" d="M4.00017 1.40736C3.78423 1.40736 3.60921 1.23234 3.60921 1.01658V0.39108C3.60921 0.175141 3.78423 0.00012207 4.00017 0.00012207C4.21611 0.00012207 4.39113 0.175141 4.39113 0.39108V1.01658C4.39113 1.23234 4.21593 1.40736 4.00017 1.40736ZM4.00018 1.99634C2.89533 1.99634 1.9965 2.89535 1.9965 4.00019C1.9965 5.10504 2.89533 6.00405 4.00018 6.00405C5.10485 6.00405 6.00386 5.10522 6.00386 4.00019C6.00386 2.89517 5.10485 1.99634 4.00018 1.99634ZM3.60921 6.98357C3.60921 6.76763 3.78423 6.59261 4.00017 6.59261C4.21593 6.59261 4.39113 6.76763 4.39113 6.98357V7.60889C4.39113 7.825 4.21611 8.00002 4.00017 8.00002C3.78423 8.00002 3.60921 7.825 3.60921 7.60889V6.98357ZM5.83326 2.16684C5.68074 2.01414 5.68074 1.76667 5.83326 1.61397L6.27559 1.17164C6.42811 1.01912 6.67576 1.01912 6.82846 1.17164C6.98116 1.32434 6.98116 1.57199 6.82846 1.72451L6.38613 2.16684C6.23361 2.31954 5.98614 2.31954 5.83326 2.16684ZM1.61404 5.83353C1.76674 5.68065 2.01421 5.68065 2.16691 5.83353C2.3196 5.98587 2.3196 6.23352 2.16691 6.38604L1.72458 6.82855C1.57205 6.98107 1.32441 6.98107 1.17171 6.82855C1.01901 6.67603 1.01919 6.4282 1.17171 6.27568L1.61404 5.83353ZM6.59269 4.00017C6.59269 3.78423 6.76771 3.60921 6.98365 3.60921H7.60915C7.82509 3.60921 8.0001 3.78423 8.0001 4.00017C8.0001 4.21611 7.82509 4.39095 7.60915 4.39095H6.98365C6.76771 4.39095 6.59269 4.21611 6.59269 4.00017ZM1.01652 3.60921C1.23246 3.60921 1.40748 3.78423 1.40748 4.00017C1.40748 4.21611 1.23246 4.39095 1.0167 4.39095H0.391202C0.175263 4.39095 0.000244141 4.21611 0.000244141 4.00017C0.000244141 3.78423 0.175263 3.60921 0.391202 3.60921H1.01652ZM5.83327 5.83359C5.98597 5.68107 6.23362 5.68107 6.38614 5.83359L6.82847 6.27592C6.98117 6.42826 6.98117 6.67609 6.82847 6.82861C6.67577 6.98113 6.4283 6.98113 6.2756 6.82861L5.83327 6.38628C5.68058 6.23358 5.68058 5.98611 5.83327 5.83359ZM2.16693 1.61393C2.31963 1.76663 2.31963 2.0141 2.16693 2.16679C2.01423 2.31967 1.76676 2.31967 1.61406 2.16679L1.17173 1.72447C1.01904 1.57194 1.01904 1.3243 1.17173 1.17177C1.32443 1.01908 1.5719 1.01908 1.7246 1.17177L2.16693 1.61393Z" fill="#F6A721"/>
</svg>
