<svg width="28" height="16" viewBox="0 0 28 16" fill="none" xmlns="http://www.w3.org/2000/svg">
<rect width="28" height="16" rx="8" fill="#3F7DE8"/>
<g filter="url(#filter0_d)">
<circle cx="20" cy="8" r="6" fill="white"/>
</g>
<path d="M23.8053 8.55866C23.7235 8.53812 23.6417 8.55866 23.57 8.61002C23.3041 8.83602 22.9972 9.02093 22.6596 9.1442C22.3425 9.26747 21.9947 9.32911 21.6264 9.32911C20.7978 9.32911 20.0408 8.99011 19.4986 8.44566C18.9564 7.90121 18.6188 7.14103 18.6188 6.30895C18.6188 5.95968 18.6802 5.62068 18.7825 5.3125C18.895 4.98378 19.0587 4.68587 19.2735 4.42905C19.3656 4.31605 19.3451 4.15169 19.2326 4.05924C19.161 4.00787 19.0792 3.98733 18.9973 4.00787C18.1278 4.24414 17.3708 4.76805 16.8286 5.46659C16.3069 6.15486 16 7.00749 16 7.93203C16 9.05175 16.4501 10.0687 17.1867 10.8084C17.9232 11.548 18.9257 12 20.051 12C20.9921 12 21.8617 11.6713 22.5573 11.1268C23.2632 10.5721 23.7746 9.78111 23.9895 8.87711C24.0304 8.7333 23.9485 8.58948 23.8053 8.55866Z" fill="#3A4A65"/>
<defs>
<filter id="filter0_d" x="12.6667" y="1.33333" width="14.6667" height="14.6667" filterUnits="userSpaceOnUse" color-interpolation-filters="sRGB">
<feFlood flood-opacity="0" result="BackgroundImageFix"/>
<feColorMatrix in="SourceAlpha" type="matrix" values="0 0 0 0 0 0 0 0 0 0 0 0 0 0 0 0 0 0 127 0"/>
<feOffset dy="0.666667"/>
<feGaussianBlur stdDeviation="0.666667"/>
<feColorMatrix type="matrix" values="0 0 0 0 0.027451 0 0 0 0 0.278431 0 0 0 0 0.65098 0 0 0 0.4 0"/>
<feBlend mode="normal" in2="BackgroundImageFix" result="effect1_dropShadow"/>
<feBlend mode="normal" in="SourceGraphic" in2="effect1_dropShadow" result="shape"/>
</filter>
</defs>
</svg>
